# Blender v2.79 (sub 0) OBJ File: 'tilesapilaos.blend'
# www.blender.org
mtllib FloorTile_default.mtl
o Cube_Cube.001
v -0.500515 -0.580781 0.501267
v -0.500515 0.419219 0.501267
v -0.500515 -0.580781 -0.498733
v -0.500515 0.419219 -0.498733
v 0.499485 -0.580781 0.501267
v 0.499485 0.419219 0.501267
v 0.499485 -0.580781 -0.498733
v 0.499485 0.419219 -0.498733
v -0.493484 -0.485456 0.494236
v -0.493484 -0.485456 -0.491702
v 0.492454 -0.485456 0.494236
v 0.492454 -0.485456 -0.491702
v -0.465435 0.500482 0.466187
v -0.493484 0.472434 0.494236
v -0.465435 0.500482 -0.463654
v -0.493484 0.472434 -0.491702
v 0.464405 0.500482 0.466187
v 0.492454 0.472434 0.494236
v 0.464405 0.500482 -0.463654
v 0.492454 0.472434 -0.491702
vt 0.750632 0.290818
vt 0.505403 0.290818
vt 0.505403 0.004298
vt 0.750632 0.004298
vt 0.248908 0.704615
vt 0.003678 0.704615
vt 0.003678 0.418095
vt 0.248908 0.418095
vt 0.501494 0.693235
vt 0.256265 0.693235
vt 0.256265 0.406714
vt 0.501494 0.406714
vt 0.003678 0.409499
vt 0.003678 0.206899
vt 0.248908 0.206899
vt 0.248908 0.409499
vt 0.754081 0.693234
vt 0.508851 0.693234
vt 0.508851 0.406714
vt 0.754081 0.406714
vt 0.003678 0.004298
vt 0.248908 0.004298
vt 0.263143 0.004298
vt 0.491167 0.004298
vt 0.491167 0.192684
vt 0.263143 0.192684
vt 0.498046 0.984322
vt 0.263143 0.984322
vt 0.263143 0.701830
vt 0.498046 0.701830
vt 0.245459 0.995702
vt 0.010557 0.995702
vt 0.010557 0.713211
vt 0.245459 0.713211
vt 0.754541 0.984322
vt 0.754541 0.701830
vt 0.996322 0.701830
vt 0.996322 0.984322
vt 0.747184 0.984322
vt 0.512281 0.984322
vt 0.512281 0.701830
vt 0.747184 0.701830
vt 0.003678 0.987666
vt 0.003678 0.721247
vt 0.505403 0.976285
vt 0.505403 0.709867
vt 0.256265 0.976285
vt 0.256265 0.709867
vt 0.498046 0.204050
vt 0.256265 0.204050
vt 0.256265 0.398118
vt 0.498046 0.398118
vn -1.0000 0.0000 0.0000
vn 0.0000 0.0000 -1.0000
vn 1.0000 0.0000 0.0000
vn 0.0000 0.0000 1.0000
vn 0.0000 -1.0000 0.0000
vn 0.0000 1.0000 0.0000
vn -0.7071 0.7071 0.0000
vn 0.0000 0.7071 -0.7071
vn 0.7071 0.7071 0.0000
vn 0.0000 0.7071 0.7071
usemtl Material.002
s off
f 1/1/1 2/2/1 4/3/1 3/4/1
f 3/5/2 4/6/2 8/7/2 7/8/2
f 7/9/3 8/10/3 6/11/3 5/12/3
f 5/13/4 6/14/4 2/15/4 1/16/4
f 3/17/5 7/18/5 5/19/5 1/20/5
f 8/21/6 4/22/6 2/15/6 6/14/6
f 19/23/6 15/24/6 13/25/6 17/26/6
f 12/27/3 20/28/3 18/29/3 11/30/3
f 9/31/1 14/32/1 16/33/1 10/34/1
f 10/35/5 12/36/5 11/37/5 9/38/5
f 10/39/2 16/40/2 20/41/2 12/42/2
f 13/43/7 15/44/7 16/33/7 14/32/7
f 15/45/8 19/46/8 20/41/8 16/40/8
f 19/47/9 17/48/9 18/29/9 20/28/9
f 17/26/10 13/25/10 14/49/10 18/50/10
f 11/51/4 18/50/4 14/49/4 9/52/4
