# Blender v2.79 (sub 0) OBJ File: ''
# www.blender.org
mtllib floorTile_2.mtl
o Cube.009_Cube.011
v -0.500000 -0.580865 0.500000
v -0.500000 0.419135 0.500000
v -0.500000 -0.580865 -0.500000
v -0.500000 0.419135 -0.500000
v 0.500000 -0.580865 0.500000
v 0.500000 0.419135 0.500000
v 0.500000 -0.580865 -0.500000
v 0.500000 0.419135 -0.500000
v -0.492969 -0.485539 0.492969
v -0.492969 -0.485539 -0.492969
v 0.492969 -0.485539 0.492969
v 0.492969 -0.485539 -0.492969
v -0.464920 0.500399 0.464920
v -0.492969 0.472350 0.492969
v -0.464920 0.500399 -0.464920
v -0.492969 0.472350 -0.492969
v 0.464920 0.500399 -0.464920
v 0.492969 0.472350 -0.492969
v -0.492969 -0.485539 0.111639
v 0.492969 -0.485539 0.476895
v -0.464920 0.500399 0.074927
v -0.492969 0.472350 0.025238
v 0.464920 0.500399 0.377572
v 0.492969 0.472350 0.390493
v -0.288036 -0.485539 -0.492969
v 0.041364 -0.485539 0.492969
v -0.197370 0.500399 -0.464920
v -0.209054 0.472350 -0.492969
v 0.113288 0.500399 0.464920
v 0.120346 0.472350 0.492969
v 0.030313 0.500399 0.275741
v -0.028556 -0.485539 0.283688
v -0.464920 0.500399 0.028978
v -0.492969 0.472350 0.067066
v 0.030313 0.500399 0.212445
v -0.028556 -0.485539 0.283688
v -0.492969 -0.485539 0.153468
v 0.041364 -0.485539 0.492969
v -0.217304 0.500399 0.252845
v -0.217304 0.500399 0.269511
v 0.247616 0.500399 0.357392
v 0.356268 0.500399 0.412964
v 0.138965 0.500399 0.226400
v 0.114020 0.500399 0.370330
vn -1.0000 0.0000 0.0000
vn 0.0000 0.0000 -1.0000
vn 1.0000 0.0000 0.0000
vn 0.0000 0.0000 1.0000
vn 0.0000 -1.0000 0.0000
vn 0.0000 1.0000 0.0000
vn -0.7071 0.7071 0.0000
vn 0.0000 0.7071 -0.7071
vn 0.0000 0.7071 0.7071
vn 0.7071 0.7071 0.0000
vn 0.0000 0.0809 0.9967
vn 0.2480 0.5988 0.7615
vn 0.2893 0.1018 0.9518
vn 0.9942 -0.0820 -0.0700
vn 0.9679 0.2511 0.0075
vn -0.4449 0.2127 0.8699
vn -0.7469 0.2414 0.6195
vn -0.1270 0.0790 0.9888
vn -0.9335 0.1767 0.3119
vn -0.1818 -0.0040 0.9833
vn -0.6684 0.0810 0.7393
vn -0.2173 0.0877 0.9721
vn 0.3462 -0.0843 -0.9344
vn 0.6159 -0.0800 -0.7838
vn 0.1882 0.0219 -0.9819
vn 0.8889 -0.0890 -0.4494
usemtl Tierra_2.005
s off
f 1//1 2//1 4//1 3//1
f 3//2 4//2 8//2 7//2
f 7//3 8//3 6//3 5//3
f 5//4 6//4 2//4 1//4
f 3//5 7//5 5//5 1//5
f 8//6 4//6 2//6 6//6
usemtl Piedra_3.001
f 31//6 40//6 21//6 13//6 29//6 44//6
f 19//1 22//1 16//1 10//1
f 32//5 20//5 11//5 38//5
f 25//2 28//2 18//2 12//2
f 33//7 15//7 16//7 22//7
f 27//8 17//8 18//8 28//8
f 29//9 13//9 14//9 30//9
f 26//4 30//4 14//4 9//4
f 17//10 23//10 24//10 18//10
f 27//6 15//6 33//6 39//6 35//6
f 13//7 21//7 34//7 14//7
f 12//3 18//3 24//3 20//3
f 9//1 14//1 34//1 37//1
f 25//5 12//5 20//5 32//5
f 15//8 27//8 28//8 16//8
f 17//6 27//6 35//6 43//6 41//6 42//6 23//6
f 37//5 36//5 26//5 9//5
f 10//2 16//2 28//2 25//2
f 10//5 25//5 32//5 19//5
f 11//11 42//11 38//11
f 23//12 42//12 24//12
f 11//13 20//13 24//13 42//13
f 30//14 38//14 44//14
f 29//15 30//15 44//15
f 42//16 41//16 38//16
f 41//17 43//17 38//17
f 35//18 36//18 43//18
f 43//19 36//19 38//19
f 35//20 39//20 19//20 36//20
f 39//21 33//21 19//21
f 22//22 19//22 33//22
f 34//23 21//23 37//23
f 40//24 37//24 21//24
f 36//25 37//25 40//25 31//25
f 31//26 44//26 38//26 36//26
