# Blender v2.79 (sub 0) OBJ File: 'tilesapilaos.blend'
# www.blender.org
mtllib FloorTile_1.mtl
o Cube.004_Cube.017
v 0.492969 -0.484482 0.491049
v -0.492969 -0.484482 0.491049
v 0.492969 -0.484482 -0.494889
v -0.492969 -0.484482 -0.494889
v 0.464920 0.501456 0.463000
v 0.492969 0.473407 0.491049
v -0.464920 0.501456 0.463000
v -0.492969 0.473407 0.491049
v 0.464920 0.501456 -0.466840
v 0.492969 0.473407 -0.494889
v -0.464920 0.501456 -0.466840
v -0.492969 0.473407 -0.494889
v -0.492969 -0.484482 -0.128133
v 0.492969 -0.484482 0.182223
v -0.464920 0.501456 -0.051759
v -0.492969 0.473407 -0.062510
v 0.464920 0.501456 0.240938
v 0.492969 0.473407 0.247846
v -0.239997 0.501456 0.200376
v 0.224413 -0.484482 0.097686
v -0.492969 -0.484482 0.410754
v -0.492969 0.473407 0.190898
v 0.492969 0.473407 0.096854
v 0.492969 -0.484482 0.316711
v -0.464920 0.501456 0.181784
v 0.464920 0.501456 0.093092
v 0.104466 0.501456 0.127474
v 0.492969 -0.033226 0.213138
v -0.227673 0.501456 0.249828
v -0.500000 -0.579808 0.498080
v -0.500000 0.420192 0.498080
v -0.500000 -0.579808 -0.501920
v -0.500000 0.420192 -0.501920
v 0.500000 -0.579808 0.498080
v 0.500000 0.420192 0.498080
v 0.500000 -0.579808 -0.501920
v 0.500000 0.420192 -0.501920
vt 0.676676 0.492385
vt 0.745831 0.492385
vt 0.745831 0.709512
vt 0.691223 0.709512
vt 0.663320 0.625342
vt 0.693409 0.547785
vt 0.760106 0.486645
vt 0.994380 0.485836
vt 0.994380 0.715923
vt 0.760106 0.716732
vt 0.762128 0.244721
vt 0.996311 0.245379
vt 0.996311 0.475519
vt 0.762128 0.474862
vt 0.256981 0.570173
vt 0.256981 0.484532
vt 0.499437 0.484532
vt 0.499437 0.642644
vt 0.433395 0.622904
vt 0.781004 0.233728
vt 0.764867 0.010052
vt 0.871195 0.010052
vt 0.871195 0.233728
vt 0.752729 0.485836
vt 0.752729 0.716061
vt 0.762223 0.003503
vt 0.864297 0.003503
vt 0.517170 0.492385
vt 0.517170 0.709512
vt 0.510272 0.716061
vt 0.510272 0.485836
vt 0.003689 0.542935
vt 0.003689 0.491082
vt 0.010586 0.484532
vt 0.010586 0.541322
vt 0.135175 0.549427
vt 0.246145 0.484532
vt 0.246145 0.525242
vt 0.003689 0.577459
vt 0.010586 0.576580
vt 0.654865 0.709512
vt 0.256981 0.696008
vt 0.499437 0.674048
vt 0.619244 0.492385
vt 0.681248 0.544907
vt 0.246145 0.556646
vt 0.003689 0.708208
vt 0.010586 0.714758
vt 0.246145 0.714758
vt 0.219042 0.736618
vt 0.286404 0.721763
vt 0.285781 0.728624
vt 0.213883 0.744479
vt 0.256981 0.714758
vt 0.499437 0.714758
vt 0.267170 0.962357
vt 0.286404 0.958116
vt 0.878572 0.227435
vt 0.885319 0.003503
vt 0.885320 0.234396
vt 0.352606 0.964432
vt 0.293782 0.945821
vt 0.352606 0.721763
vt 0.206506 0.995783
vt 0.133213 0.956401
vt 0.206506 0.721763
vt 0.003689 0.800421
vt 0.006015 0.791256
vt 0.125836 0.996497
vt 0.056473 0.764571
vt 0.125836 0.721763
vt 0.249603 0.237012
vt 0.003689 0.237012
vt 0.003689 0.003503
vt 0.249603 0.003503
vt 0.510272 0.004347
vt 0.754846 0.003503
vt 0.754846 0.236871
vt 0.510272 0.237716
vt 0.003689 0.477527
vt 0.003689 0.244017
vt 0.249603 0.244017
vt 0.249603 0.477527
vt 0.754751 0.478830
vt 0.510272 0.478144
vt 0.510272 0.244721
vt 0.754751 0.245408
vt 0.256981 0.477527
vt 0.256981 0.244017
vt 0.502895 0.244017
vt 0.502895 0.477527
vt 0.502895 0.237012
vt 0.256981 0.237012
vt 0.256981 0.003503
vt 0.502895 0.003503
vn 0.0000 1.0000 0.0000
vn -0.0000 0.0000 -1.0000
vn 0.0000 0.0000 1.0000
vn 0.0000 -1.0000 0.0000
vn -1.0000 0.0000 0.0000
vn 0.0000 0.7071 0.7071
vn -0.7071 0.7071 0.0000
vn -0.0000 0.7071 -0.7071
vn 0.7071 0.7071 -0.0000
vn 1.0000 -0.0000 -0.0000
vn -0.2996 -0.0652 0.9518
vn -0.7459 -0.0303 0.6654
vn 0.1936 -0.3545 0.9148
vn -0.0926 -0.2227 -0.9705
vn 0.2686 -0.2251 -0.9366
vn -0.3451 -0.0600 -0.9367
usemtl Material.009
s off
f 25/1/1 7/2/1 5/3/1 17/4/1 27/5/1 29/6/1
f 4/7/2 12/8/2 10/9/2 3/10/2
f 1/11/3 6/12/3 8/13/3 2/14/3
f 13/15/4 4/16/4 3/17/4 14/18/4 20/19/4
f 13/20/5 16/21/5 12/22/5 4/23/5
f 5/3/6 7/2/6 8/24/6 6/25/6
f 15/26/7 11/27/7 12/22/7 16/21/7
f 11/28/8 9/29/8 10/30/8 12/31/8
f 17/32/9 5/33/9 6/34/9 18/35/9
f 28/36/10 18/35/10 6/34/10 1/37/10 24/38/10
f 26/39/9 17/32/9 18/35/9 23/40/9
f 26/41/1 27/5/1 17/4/1
f 28/36/10 23/40/10 18/35/10
f 21/42/4 13/15/4 20/19/4 14/18/4 24/43/4
f 11/28/1 15/44/1 19/45/1 27/5/1 26/41/1 9/29/1
f 14/46/10 28/36/10 24/38/10
f 9/47/9 26/39/9 23/40/9 10/48/9
f 3/49/10 10/48/10 23/40/10 28/36/10 14/46/10
f 7/50/7 25/51/7 22/52/7 8/53/7
f 2/54/4 21/42/4 24/43/4 1/55/4
f 2/56/5 8/53/5 22/52/5 21/57/5
f 16/58/11 13/59/11 15/60/11
f 19/61/12 15/62/12 13/63/12
f 27/64/13 19/65/13 13/66/13
f 22/67/14 25/68/14 21/69/14
f 29/70/15 21/69/15 25/68/15
f 27/71/16 21/69/16 29/70/16
f 30/72/5 31/73/5 33/74/5 32/75/5
f 32/76/2 33/77/2 37/78/2 36/79/2
f 36/80/10 37/81/10 35/82/10 34/83/10
f 34/84/3 35/85/3 31/86/3 30/87/3
f 32/88/4 36/89/4 34/90/4 30/91/4
f 37/92/1 33/93/1 31/94/1 35/95/1
