# Blender v2.79 (sub 0) OBJ File: ''
# www.blender.org
mtllib floorTile_default.mtl
o Cube_Cube.001
v -0.500000 -0.580781 0.500000
v -0.500000 0.419219 0.500000
v -0.500000 -0.580781 -0.500000
v -0.500000 0.419219 -0.500000
v 0.500000 -0.580781 0.500000
v 0.500000 0.419219 0.500000
v 0.500000 -0.580781 -0.500000
v 0.500000 0.419219 -0.500000
v -0.492969 -0.485456 0.492969
v -0.492969 -0.485456 -0.492969
v 0.492969 -0.485456 0.492969
v 0.492969 -0.485456 -0.492969
v -0.464920 0.500482 0.464920
v -0.492969 0.472434 0.492969
v -0.464920 0.500482 -0.464920
v -0.492969 0.472434 -0.492969
v 0.464920 0.500482 0.464920
v 0.492969 0.472434 0.492969
v 0.464920 0.500482 -0.464920
v 0.492969 0.472434 -0.492969
vn -1.0000 0.0000 0.0000
vn 0.0000 0.0000 -1.0000
vn 1.0000 0.0000 0.0000
vn 0.0000 0.0000 1.0000
vn 0.0000 -1.0000 0.0000
vn 0.0000 1.0000 0.0000
vn -0.7071 0.7071 0.0000
vn 0.0000 0.7071 -0.7071
vn 0.7071 0.7071 0.0000
vn 0.0000 0.7071 0.7071
usemtl Tierra_2.004
s off
f 1//1 2//1 4//1 3//1
f 3//2 4//2 8//2 7//2
f 7//3 8//3 6//3 5//3
f 5//4 6//4 2//4 1//4
f 3//5 7//5 5//5 1//5
f 8//6 4//6 2//6 6//6
usemtl Piedra3_2
f 19//6 15//6 13//6 17//6
f 12//3 20//3 18//3 11//3
f 9//1 14//1 16//1 10//1
f 10//5 12//5 11//5 9//5
f 10//2 16//2 20//2 12//2
f 13//7 15//7 16//7 14//7
f 15//8 19//8 20//8 16//8
f 19//9 17//9 18//9 20//9
f 17//10 13//10 14//10 18//10
f 11//4 18//4 14//4 9//4
