# Blender v2.79 (sub 0) OBJ File: 'tilesapilaos.blend'
# www.blender.org
mtllib floorTile_2.mtl
o Cube.009_Cube.011
v -0.500000 -0.580865 0.500000
v -0.500000 0.419135 0.500000
v -0.500000 -0.580865 -0.500000
v -0.500000 0.419135 -0.500000
v 0.500000 -0.580865 0.500000
v 0.500000 0.419135 0.500000
v 0.500000 -0.580865 -0.500000
v 0.500000 0.419135 -0.500000
v -0.492969 -0.485539 0.492969
v -0.492969 -0.485539 -0.492969
v 0.492969 -0.485539 0.492969
v 0.492969 -0.485539 -0.492969
v -0.464920 0.500399 0.464920
v -0.492969 0.472350 0.492969
v -0.464920 0.500399 -0.464920
v -0.492969 0.472350 -0.492969
v 0.464920 0.500399 -0.464920
v 0.492969 0.472350 -0.492969
v -0.492969 -0.485539 0.111639
v 0.492969 -0.485539 0.476895
v -0.464920 0.500399 0.074927
v -0.492969 0.472350 0.025238
v 0.464920 0.500399 0.377572
v 0.492969 0.472350 0.390493
v -0.288036 -0.485539 -0.492969
v 0.041364 -0.485539 0.492969
v -0.197370 0.500399 -0.464920
v -0.209054 0.472350 -0.492969
v 0.113288 0.500399 0.464920
v 0.120346 0.472350 0.492969
v 0.030313 0.500399 0.275741
v -0.028556 -0.485539 0.283688
v -0.464920 0.500399 0.028978
v -0.492969 0.472350 0.067066
v 0.030313 0.500399 0.212445
v -0.028556 -0.485539 0.283688
v -0.492969 -0.485539 0.153468
v 0.041364 -0.485539 0.492969
v -0.217304 0.500399 0.252845
v -0.217304 0.500399 0.269511
v 0.247616 0.500399 0.357392
v 0.356268 0.500399 0.412964
v 0.138965 0.500399 0.226400
v 0.114020 0.500399 0.370330
vt 0.510287 0.255528
vt 0.510287 0.498946
vt 0.261157 0.499808
vt 0.261157 0.256390
vt 0.766232 0.255528
vt 0.766232 0.499171
vt 0.517784 0.499503
vt 0.517784 0.255860
vt 0.517607 0.247704
vt 0.517607 0.004075
vt 0.766138 0.003655
vt 0.766138 0.247285
vt 0.510110 0.005178
vt 0.510110 0.248218
vt 0.261157 0.246695
vt 0.261157 0.003655
vt 0.253660 0.498290
vt 0.003749 0.498290
vt 0.003749 0.254627
vt 0.253660 0.254627
vt 0.253660 0.003655
vt 0.253660 0.247317
vt 0.003749 0.247317
vt 0.003749 0.003655
vt 0.454459 0.874247
vt 0.452902 0.813912
vt 0.404273 0.753577
vt 0.501737 0.753577
vt 0.501737 0.894465
vt 0.478098 0.894643
vt 0.003749 0.993943
vt 0.025274 0.760700
vt 0.154374 0.760254
vt 0.154374 0.993422
vt 0.197844 0.632676
vt 0.246128 0.505600
vt 0.250146 0.505600
vt 0.250146 0.615639
vt 0.261157 0.556760
vt 0.500525 0.576212
vt 0.500525 0.746268
vt 0.261157 0.745948
vt 0.023788 0.753571
vt 0.146832 0.753146
vt 0.985716 0.675022
vt 0.985716 0.513647
vt 0.992726 0.506813
vt 0.992726 0.677869
vt 0.776100 0.255528
vt 0.920046 0.256408
vt 0.926416 0.263754
vt 0.773729 0.262820
vt 0.793392 0.495746
vt 0.926416 0.496560
vt 0.752163 0.747129
vt 0.542778 0.747129
vt 0.538843 0.740183
vt 0.758411 0.740183
vt 0.985716 0.740214
vt 0.862285 0.740214
vt 0.806338 0.679879
vt 0.816435 0.619545
vt 0.985922 0.994683
vt 0.888763 0.995019
vt 0.886251 0.987893
vt 0.992356 0.987526
vt 0.758826 0.506813
vt 0.517784 0.506813
vt 0.992356 0.754359
vt 0.907776 0.754651
vt 0.003749 0.695901
vt 0.003749 0.505600
vt 0.992726 0.747049
vt 0.812947 0.593070
vt 0.780211 0.566596
vt 0.766323 0.540122
vt 0.775168 0.513647
vt 0.161872 0.883343
vt 0.194415 0.770183
vt 0.246717 0.753146
vt 0.246717 0.883343
vt 0.261157 0.507118
vt 0.500525 0.507438
vt 0.003749 0.745836
vt 0.154847 0.745836
vt 0.766323 0.996345
vt 0.800554 0.755330
vt 0.878753 0.996345
vt 0.774274 0.754711
vt 0.767054 0.761754
vt 0.766673 0.996064
vt 0.990289 0.262429
vt 0.989083 0.495491
vt 0.959618 0.255730
vt 0.983107 0.255604
vt 0.828813 0.754359
vt 0.961457 0.004085
vt 0.996251 0.003655
vt 0.942758 0.247481
vt 0.907909 0.244781
vt 0.898915 0.003655
vt 0.935261 0.245147
vt 0.996251 0.245757
vt 0.847174 0.242720
vt 0.779514 0.003998
vt 0.780584 0.245147
vt 0.773636 0.238239
vt 0.396776 0.987215
vt 0.389620 0.994059
vt 0.393584 0.753577
vt 0.322845 0.993780
vt 0.274685 0.753749
vt 0.261157 0.994059
vt 0.933913 0.255528
vt 0.935236 0.495491
vn -1.0000 0.0000 0.0000
vn 0.0000 0.0000 -1.0000
vn 1.0000 0.0000 0.0000
vn 0.0000 0.0000 1.0000
vn 0.0000 -1.0000 0.0000
vn 0.0000 1.0000 0.0000
vn -0.7071 0.7071 0.0000
vn 0.0000 0.7071 -0.7071
vn 0.0000 0.7071 0.7071
vn 0.7071 0.7071 0.0000
vn 0.0000 0.0809 0.9967
vn 0.2480 0.5988 0.7615
vn 0.2893 0.1018 0.9518
vn 0.9942 -0.0820 -0.0700
vn 0.9679 0.2511 0.0075
vn -0.4449 0.2127 0.8699
vn -0.7469 0.2414 0.6195
vn -0.1270 0.0790 0.9888
vn -0.9335 0.1767 0.3119
vn -0.1818 -0.0040 0.9833
vn -0.6684 0.0810 0.7393
vn -0.2173 0.0877 0.9721
vn 0.3462 -0.0843 -0.9344
vn 0.6159 -0.0800 -0.7838
vn 0.1882 0.0219 -0.9819
vn 0.8889 -0.0890 -0.4494
usemtl Material.006
s off
f 1/1/1 2/2/1 4/3/1 3/4/1
f 3/5/2 4/6/2 8/7/2 7/8/2
f 7/9/3 8/10/3 6/11/3 5/12/3
f 5/13/4 6/14/4 2/15/4 1/16/4
f 3/17/5 7/18/5 5/19/5 1/20/5
f 8/21/6 4/22/6 2/23/6 6/24/6
f 31/25/6 40/26/6 21/27/6 13/28/6 29/29/6 44/30/6
f 19/31/1 22/32/1 16/33/1 10/34/1
f 32/35/5 20/36/5 11/37/5 38/38/5
f 25/39/2 28/40/2 18/41/2 12/42/2
f 33/43/7 15/44/7 16/33/7 22/32/7
f 27/45/8 17/46/8 18/47/8 28/48/8
f 29/49/9 13/50/9 14/51/9 30/52/9
f 26/53/4 30/52/4 14/51/4 9/54/4
f 17/55/10 23/56/10 24/57/10 18/58/10
f 27/45/6 15/59/6 33/60/6 39/61/6 35/62/6
f 13/63/7 21/64/7 34/65/7 14/66/7
f 12/67/3 18/58/3 24/57/3 20/68/3
f 9/69/1 14/66/1 34/65/1 37/70/1
f 25/71/5 12/72/5 20/36/5 32/35/5
f 15/59/8 27/45/8 28/48/8 16/73/8
f 17/46/6 27/45/6 35/62/6 43/74/6 41/75/6 42/76/6 23/77/6
f 37/78/5 36/79/5 26/80/5 9/81/5
f 10/82/2 16/83/2 28/40/2 25/39/2
f 10/84/5 25/71/5 32/35/5 19/85/5
f 11/86/11 42/87/11 38/88/11
f 23/89/12 42/87/12 24/90/12
f 11/86/13 20/91/13 24/90/13 42/87/13
f 30/92/14 38/93/14 44/94/14
f 29/95/15 30/92/15 44/94/15
f 42/87/16 41/96/16 38/88/16
f 41/97/17 43/98/17 38/99/17
f 35/100/18 36/101/18 43/102/18
f 43/98/19 36/103/19 38/99/19
f 35/100/20 39/104/20 19/105/20 36/101/20
f 39/104/21 33/106/21 19/105/21
f 22/107/22 19/105/22 33/106/22
f 34/108/23 21/109/23 37/110/23
f 40/111/24 37/110/24 21/109/24
f 36/112/25 37/110/25 40/111/25 31/113/25
f 31/114/26 44/94/26 38/93/26 36/115/26
