# Blender v2.79 (sub 0) OBJ File: 'tilesapilaos.blend'
# www.blender.org
mtllib floorTile_3.mtl
o Cube.001_Cube.016
v -0.500000 -0.579013 0.500000
v -0.500000 0.420987 0.500000
v -0.500000 -0.579013 -0.500000
v -0.500000 0.420987 -0.500000
v 0.500000 -0.579013 0.500000
v 0.500000 0.420987 0.500000
v 0.500000 -0.579013 -0.500000
v 0.500000 0.420987 -0.500000
v -0.492969 -0.483687 0.492969
v -0.492969 -0.483687 -0.492969
v 0.492969 -0.483687 0.492969
v 0.492969 -0.483687 -0.492969
v -0.464920 0.502251 0.464920
v -0.492969 0.474202 0.492969
v 0.464920 0.502251 0.464920
v 0.492969 0.474202 0.492969
v 0.464920 0.502251 -0.464920
v 0.492969 0.474202 -0.492969
v 0.492969 -0.483687 0.114674
v 0.211447 -0.483687 0.492969
v -0.347622 0.502251 -0.243876
v -0.396496 0.474202 -0.159367
v -0.183123 0.502251 -0.464920
v -0.244706 0.474202 -0.492969
v -0.492969 0.083390 0.492969
v 0.492969 -0.119651 -0.492969
vt 0.761267 0.003917
vt 0.761267 0.265044
vt 0.514151 0.265044
vt 0.514151 0.003917
vt 0.251500 0.534005
vt 0.003717 0.534005
vt 0.003717 0.272878
vt 0.251500 0.272878
vt 0.251500 0.265044
vt 0.003717 0.265044
vt 0.003717 0.003917
vt 0.251500 0.003917
vt 0.258934 0.265044
vt 0.258934 0.003917
vt 0.506718 0.003917
vt 0.506718 0.265044
vt 0.251500 0.802966
vt 0.003717 0.802966
vt 0.003717 0.541839
vt 0.251500 0.541839
vt 0.506718 0.272878
vt 0.506718 0.534005
vt 0.258934 0.534005
vt 0.258934 0.272878
vt 0.661298 0.795622
vt 0.514151 0.795622
vt 0.514151 0.538167
vt 0.751500 0.538167
vt 0.751500 0.636950
vt 0.668732 0.803456
vt 0.765568 0.803456
vt 0.765568 0.975188
vt 0.758450 0.346391
vt 0.664715 0.272878
vt 0.758450 0.272878
vt 0.514151 0.996083
vt 0.661298 0.803456
vt 0.661298 0.996083
vt 0.265884 0.622748
vt 0.265884 0.791970
vt 0.258934 0.799294
vt 0.258934 0.606667
vt 0.496283 0.791970
vt 0.503233 0.799294
vt 0.496283 0.549163
vt 0.503233 0.541839
vt 0.996283 0.722109
vt 0.855771 0.538167
vt 0.996283 0.538167
vt 0.897949 0.368014
vt 0.800556 0.229750
vt 0.768701 0.140125
vt 0.897949 0.003917
vt 0.320655 0.579793
vt 0.341595 0.567031
vt 0.996283 0.795622
vt 0.758934 0.795622
vt 0.758934 0.538167
vt 0.751500 0.795622
vt 0.514151 0.530333
vt 0.514151 0.272878
vt 0.758451 0.530333
vn -1.0000 0.0000 0.0000
vn 0.0000 0.0000 -1.0000
vn 1.0000 0.0000 0.0000
vn 0.0000 0.0000 1.0000
vn 0.0000 -1.0000 0.0000
vn 0.0000 1.0000 0.0000
vn -0.9892 0.0000 -0.1463
vn 0.0000 0.7071 -0.7071
vn 0.7071 0.7071 0.0000
vn 0.0000 0.7071 0.7071
vn -0.6076 -0.6740 -0.4202
vn -0.6836 0.7219 -0.1074
vn -0.5529 0.7713 -0.3153
usemtl Material.004
s off
f 1/1/1 2/2/1 4/3/1 3/4/1
f 3/5/2 4/6/2 8/7/2 7/8/2
f 7/9/3 8/10/3 6/11/3 5/12/3
f 5/13/4 6/14/4 2/15/4 1/16/4
f 3/17/5 7/18/5 5/19/5 1/20/5
f 8/21/6 4/22/6 2/23/6 6/24/6
f 26/25/3 18/26/3 16/27/3 11/28/3 19/29/3
f 25/30/7 14/31/7 22/32/7
f 20/33/5 19/34/5 11/35/5
f 26/36/2 24/37/2 18/38/2
f 23/39/8 17/40/8 18/41/8 24/42/8
f 17/40/9 15/43/9 16/44/9 18/41/9
f 15/43/10 13/45/10 14/46/10 16/44/10
f 20/47/4 25/48/4 9/49/4
f 25/50/11 22/51/11 24/52/11 26/53/11
f 17/40/6 23/39/6 21/54/6 13/45/6 15/43/6
f 13/45/12 21/54/12 22/55/12 14/46/12
f 11/56/4 16/57/4 14/58/4 25/48/4 20/47/4
f 12/59/3 26/25/3 19/29/3
f 10/60/5 12/61/5 19/34/5 20/33/5 9/62/5
f 22/55/13 21/54/13 23/39/13 24/42/13
