# Blender v2.79 (sub 0) OBJ File: 'tilesapilaos.blend'
# www.blender.org
mtllib floorTile_1.mtl
o Cube.005_Cube.006
v -0.500003 -0.580724 0.499112
v -0.500003 0.419282 0.499112
v -0.500003 -0.580724 -0.500893
v -0.500003 0.419282 -0.500893
v 0.500003 -0.580724 0.499112
v 0.500003 0.419282 0.499112
v 0.500003 -0.580724 -0.500893
v 0.500003 0.419282 -0.500893
v 0.492972 -0.485397 0.490300
v -0.492972 -0.485397 0.490300
v 0.492972 -0.485397 -0.495644
v -0.492972 -0.485397 -0.495644
v 0.464923 0.500546 0.462251
v 0.492972 0.472497 0.490300
v -0.464923 0.500546 0.462251
v -0.492972 0.472497 0.490300
v 0.464923 0.500546 -0.467595
v 0.492972 0.472497 -0.495644
v -0.464923 0.500546 -0.467595
v -0.492972 0.472497 -0.495644
v -0.492972 -0.485397 -0.128886
v 0.492972 -0.485397 0.181472
v -0.464923 0.500546 -0.052511
v -0.492972 0.472497 -0.063262
v 0.464923 0.500546 0.240187
v 0.492972 0.472497 0.247095
v -0.239998 0.500546 0.199625
v 0.224414 -0.485397 0.096935
v -0.492972 -0.485397 0.410005
v -0.492972 0.472497 0.190147
v 0.492972 0.472497 0.096103
v 0.492972 -0.485397 0.315961
v -0.464923 0.500546 0.181033
v 0.464923 0.500546 0.092340
v 0.104467 0.500546 0.126722
v 0.492972 -0.034138 0.212387
v -0.227674 0.500546 0.249077
vt 0.502895 0.237012
vt 0.256981 0.237012
vt 0.256981 0.003503
vt 0.502895 0.003503
vt 0.754845 0.236871
vt 0.510272 0.237716
vt 0.510272 0.004347
vt 0.754845 0.003503
vt 0.249603 0.003503
vt 0.249603 0.237012
vt 0.003689 0.237012
vt 0.003689 0.003503
vt 0.510272 0.244721
vt 0.754751 0.245408
vt 0.754751 0.478831
vt 0.510272 0.478144
vt 0.003689 0.477527
vt 0.003689 0.244017
vt 0.249603 0.244017
vt 0.249603 0.477527
vt 0.502895 0.477527
vt 0.256981 0.477527
vt 0.256981 0.244017
vt 0.502895 0.244017
vt 0.260420 0.556748
vt 0.260420 0.491082
vt 0.489081 0.491082
vt 0.489081 0.542935
vt 0.400440 0.569430
vt 0.318762 0.540859
vt 0.760106 0.486645
vt 0.994380 0.485836
vt 0.994380 0.715923
vt 0.760106 0.716732
vt 0.762128 0.244721
vt 0.996311 0.245379
vt 0.996311 0.475519
vt 0.762128 0.474862
vt 0.752729 0.630421
vt 0.752728 0.716061
vt 0.510272 0.716061
vt 0.510272 0.557950
vt 0.576314 0.577690
vt 0.852414 0.003503
vt 0.868551 0.227179
vt 0.762223 0.227179
vt 0.762223 0.003503
vt 0.253522 0.484532
vt 0.495979 0.484532
vt 0.871195 0.233728
vt 0.769121 0.233728
vt 0.260420 0.708208
vt 0.489081 0.708208
vt 0.495979 0.714758
vt 0.253522 0.714758
vt 0.003689 0.542935
vt 0.003689 0.491082
vt 0.010586 0.484532
vt 0.010586 0.541322
vt 0.135175 0.549427
vt 0.246145 0.484532
vt 0.246145 0.525242
vt 0.003689 0.577459
vt 0.010586 0.576580
vt 0.489081 0.577459
vt 0.752729 0.504585
vt 0.510272 0.526545
vt 0.260420 0.611283
vt 0.315732 0.552407
vt 0.246145 0.556646
vt 0.003689 0.708208
vt 0.010586 0.714758
vt 0.246145 0.714758
vt 0.219042 0.736618
vt 0.286404 0.721763
vt 0.285781 0.728624
vt 0.213883 0.744479
vt 0.752729 0.485836
vt 0.510272 0.485836
vt 0.267170 0.962357
vt 0.286404 0.958116
vt 0.878572 0.227435
vt 0.885320 0.003503
vt 0.885320 0.234396
vt 0.293781 0.721763
vt 0.352606 0.740374
vt 0.293781 0.964432
vt 0.206506 0.995783
vt 0.133213 0.956401
vt 0.206506 0.721763
vt 0.003689 0.800421
vt 0.006015 0.791256
vt 0.125836 0.996497
vt 0.056473 0.764571
vt 0.125836 0.721763
vn -1.0000 0.0000 0.0000
vn 0.0000 0.0000 -1.0000
vn 1.0000 0.0000 0.0000
vn 0.0000 0.0000 1.0000
vn 0.0000 -1.0000 0.0000
vn 0.0000 1.0000 0.0000
vn 0.0000 0.7071 0.7071
vn -0.7071 0.7071 0.0000
vn 0.0000 0.7071 -0.7071
vn 0.7071 0.7071 -0.0000
vn -0.2996 -0.0652 0.9518
vn -0.7459 -0.0303 0.6654
vn 0.1936 -0.3545 0.9148
vn -0.0926 -0.2227 -0.9705
vn 0.2686 -0.2251 -0.9366
vn -0.3451 -0.0600 -0.9367
usemtl Material.005
s off
f 1/1/1 2/2/1 4/3/1 3/4/1
f 3/5/2 4/6/2 8/7/2 7/8/2
f 7/9/3 8/10/3 6/11/3 5/12/3
f 5/13/4 6/14/4 2/15/4 1/16/4
f 3/17/5 7/18/5 5/19/5 1/20/5
f 8/21/6 4/22/6 2/23/6 6/24/6
f 33/25/6 15/26/6 13/27/6 25/28/6 35/29/6 37/30/6
f 12/31/2 20/32/2 18/33/2 11/34/2
f 9/35/4 14/36/4 16/37/4 10/38/4
f 21/39/5 12/40/5 11/41/5 22/42/5 28/43/5
f 21/44/1 24/45/1 20/46/1 12/47/1
f 13/27/7 15/26/7 16/48/7 14/49/7
f 23/50/8 19/51/8 20/46/8 24/45/8
f 19/52/9 17/53/9 18/54/9 20/55/9
f 25/56/10 13/57/10 14/58/10 26/59/10
f 36/60/3 26/59/3 14/58/3 9/61/3 32/62/3
f 34/63/10 25/56/10 26/59/10 31/64/10
f 34/65/6 35/29/6 25/28/6
f 36/60/3 31/64/3 26/59/3
f 29/66/5 21/39/5 28/43/5 22/42/5 32/67/5
f 19/52/6 23/68/6 27/69/6 35/29/6 34/65/6 17/53/6
f 22/70/3 36/60/3 32/62/3
f 17/71/10 34/63/10 31/64/10 18/72/10
f 11/73/3 18/72/3 31/64/3 36/60/3 22/70/3
f 15/74/8 33/75/8 30/76/8 16/77/8
f 10/78/5 29/66/5 32/67/5 9/79/5
f 10/80/1 16/77/1 30/76/1 29/81/1
f 24/82/11 21/83/11 23/84/11
f 27/85/12 23/86/12 21/87/12
f 35/88/13 27/89/13 21/90/13
f 30/91/14 33/92/14 29/93/14
f 37/94/15 29/93/15 33/92/15
f 35/95/16 29/93/16 37/94/16
