# Blender v2.79 (sub 0) OBJ File: 'tilesapilaos.blend'
# www.blender.org
mtllib Obstacle_5.mtl
o Floor_basic.006_Cube.020
v 0.500000 -0.578370 -0.498591
v 0.500000 -0.578370 0.501409
v -0.500000 -0.578370 0.501409
v -0.500000 -0.578370 -0.498591
v 0.500000 0.421630 -0.498591
v 0.500000 0.421630 0.501409
v -0.500000 0.421630 0.501409
v -0.500000 0.421630 -0.498591
v 0.267548 -0.572077 -0.323164
v 0.312905 -0.561513 -0.315281
v 0.357642 -0.546361 -0.315417
v 0.400039 -0.527204 -0.323567
v 0.438468 -0.504776 -0.339417
v 0.471451 -0.479941 -0.362358
v 0.497721 -0.453652 -0.391509
v 0.516269 -0.426920 -0.425748
v 0.526381 -0.400773 -0.463762
v 0.527670 -0.376215 -0.504088
v 0.520085 -0.354189 -0.545177
v 0.503918 -0.335543 -0.585450
v 0.479790 -0.320992 -0.623360
v 0.448629 -0.311097 -0.657448
v 0.411632 -0.306236 -0.686406
v 0.370221 -0.306598 -0.709121
v 0.325987 -0.312168 -0.724719
v 0.280630 -0.322732 -0.732602
v 0.235894 -0.337884 -0.732466
v 0.193497 -0.357042 -0.724316
v 0.155068 -0.379470 -0.708466
v 0.122084 -0.404305 -0.685525
v 0.095814 -0.430593 -0.656374
v 0.077267 -0.457325 -0.622134
v 0.067154 -0.483473 -0.584121
v 0.065866 -0.508031 -0.543795
v 0.073451 -0.530056 -0.502706
v 0.089618 -0.548703 -0.462433
v 0.113746 -0.563253 -0.424524
v 0.144907 -0.573149 -0.390435
v 0.181904 -0.578009 -0.361477
v 0.223315 -0.577647 -0.338762
v 0.258247 -0.511767 -0.329114
v 0.296759 -0.502797 -0.322421
v 0.334745 -0.489932 -0.322536
v 0.370745 -0.473665 -0.329456
v 0.403374 -0.454621 -0.342914
v 0.431380 -0.433534 -0.362393
v 0.453686 -0.411212 -0.387145
v 0.469435 -0.388515 -0.416218
v 0.478021 -0.366313 -0.448495
v 0.479115 -0.345460 -0.482736
v 0.472675 -0.326758 -0.517625
v 0.458948 -0.310926 -0.551821
v 0.438461 -0.298571 -0.584009
v 0.412002 -0.290169 -0.612954
v 0.380588 -0.286042 -0.637542
v 0.345426 -0.286349 -0.656829
v 0.307867 -0.291079 -0.670074
v 0.269355 -0.300049 -0.676767
v 0.231369 -0.312914 -0.676651
v 0.195370 -0.329181 -0.669731
v 0.162740 -0.348224 -0.656273
v 0.134734 -0.369312 -0.636794
v 0.112428 -0.391633 -0.612042
v 0.096679 -0.414331 -0.582969
v 0.088093 -0.436533 -0.550692
v 0.086999 -0.457385 -0.516451
v 0.093439 -0.476087 -0.481562
v 0.107167 -0.491920 -0.447366
v 0.127653 -0.504275 -0.415178
v 0.154112 -0.512677 -0.386233
v 0.185526 -0.516804 -0.361645
v 0.220688 -0.516496 -0.342358
v -0.481894 1.231768 0.540128
v -0.468412 1.216664 0.574760
v -0.243814 1.101877 0.637544
v -0.300397 1.113849 0.685409
v -0.412805 1.256039 0.335540
v -0.443591 1.258889 0.375351
v -0.479514 1.277249 0.365309
v -0.506623 1.275930 0.414752
v -0.291503 1.120147 0.647147
v -0.337268 1.139778 0.648476
v -0.354296 1.136970 0.686974
v -0.466609 1.257769 0.417332
v -0.403858 1.160806 0.678735
v -0.480975 1.252723 0.459872
v -0.523541 1.269986 0.464852
v -0.529620 1.259647 0.513683
v -0.379352 1.160018 0.641481
v -0.447181 1.184441 0.661009
v -0.416137 1.180087 0.626429
v -0.486136 1.243943 0.501336
v -0.482597 1.206968 0.634477
v -0.524624 1.245307 0.559371
v -0.508746 1.227520 0.600158
v -0.446209 1.199214 0.603901
v -0.039660 1.037274 0.545286
v -0.070112 1.055127 0.528169
v -0.103565 1.151147 0.222229
v -0.016308 1.053396 0.446377
v -0.191414 1.191019 0.216562
v -0.145648 1.171387 0.215233
v -0.239102 1.209289 0.226165
v -0.238684 1.218834 0.189610
v -0.039326 1.052276 0.488359
v -0.083672 1.045177 0.587812
v -0.294955 1.237920 0.210229
v -0.349169 1.253842 0.239364
v -0.133747 1.057323 0.624345
v -0.150001 1.072151 0.595298
v -0.286882 1.225495 0.243672
v -0.107482 1.061838 0.564278
v -0.332916 1.239015 0.268411
v -0.187962 1.073246 0.653481
v -0.443257 1.273892 0.318423
v -0.399245 1.265988 0.275897
v -0.375435 1.249328 0.299431
v -0.244233 1.092332 0.674099
v -0.196035 1.085670 0.620037
v -0.128621 1.174196 0.176735
v -0.036708 1.111951 0.259808
v -0.014505 1.094501 0.288949
v -0.001024 1.079398 0.323581
v -0.003403 1.033917 0.498400
v 0.003218 1.067223 0.362374
v -0.066780 1.131079 0.237280
v -0.001943 1.058443 0.403837
v -0.182520 1.197317 0.178300
v -0.079058 1.150359 0.184974
v 0.023706 1.035236 0.448958
v 0.034619 1.087390 0.371485
v -0.035736 1.126724 0.202700
v 0.037206 1.051326 0.404928
v 0.032598 1.044435 0.399797
v 0.025907 1.112759 0.332396
v 0.007945 1.076556 0.319542
v -0.008327 1.127966 0.243451
v -0.015800 1.107496 0.242242
v -0.025618 1.120288 0.210280
v 0.019667 1.061283 0.357703
v 0.011406 1.126460 0.289164
v -0.003568 1.091558 0.282062
vt 0.266628 0.003670
vt 0.500146 0.003670
vt 0.500146 0.248357
vt 0.266628 0.248357
vt 0.497299 0.498417
vt 0.266628 0.503238
vt 0.266628 0.260519
vt 0.497299 0.255698
vt 0.702135 0.465077
vt 0.702135 0.709484
vt 0.507151 0.715926
vt 0.507151 0.471520
vt 0.235100 0.344316
vt 0.003503 0.344316
vt 0.028024 0.204424
vt 0.259622 0.204424
vt 0.010937 0.003670
vt 0.242535 0.003670
vt 0.003503 0.351656
vt 0.217634 0.364942
vt 0.217634 0.607352
vt 0.003503 0.594066
vt 0.252136 0.875192
vt 0.252136 0.351656
vt 0.259622 0.359001
vt 0.259622 0.862800
vt 0.378362 0.510579
vt 0.382583 0.517104
vt 0.374458 0.528244
vt 0.370874 0.522703
vt 0.877792 0.420037
vt 0.866762 0.420037
vt 0.867594 0.405065
vt 0.876960 0.405064
vt 0.237883 0.351656
vt 0.237883 0.787054
vt 0.233139 0.779420
vt 0.231879 0.781090
vt 0.231879 0.363736
vt 0.119130 0.628880
vt 0.109965 0.630324
vt 0.111348 0.615919
vt 0.119130 0.614693
vt 0.803891 0.499867
vt 0.803891 0.895939
vt 0.797328 0.896260
vt 0.797328 0.512878
vt 0.992591 0.451144
vt 0.992591 0.918850
vt 0.986587 0.919831
vt 0.986587 0.463224
vt 0.093202 0.614693
vt 0.102960 0.615503
vt 0.102960 0.629938
vt 0.094675 0.629250
vt 0.664631 0.280553
vt 0.675317 0.279326
vt 0.686252 0.279989
vt 0.697014 0.282517
vt 0.707191 0.286813
vt 0.716390 0.292710
vt 0.724260 0.299984
vt 0.730497 0.308353
vt 0.734861 0.317497
vt 0.737185 0.327065
vt 0.737380 0.336687
vt 0.735437 0.345996
vt 0.731432 0.354632
vt 0.725519 0.362265
vt 0.717925 0.368600
vt 0.708941 0.373394
vt 0.698914 0.376464
vt 0.688227 0.377691
vt 0.677293 0.377027
vt 0.666530 0.374499
vt 0.656354 0.370204
vt 0.647154 0.364306
vt 0.639284 0.357033
vt 0.633048 0.348663
vt 0.628683 0.339519
vt 0.626359 0.329952
vt 0.626165 0.320329
vt 0.628107 0.311021
vt 0.632112 0.302384
vt 0.638025 0.294752
vt 0.645619 0.288417
vt 0.654603 0.283622
vt 0.382583 0.897595
vt 0.374458 0.898397
vt 0.793080 0.004137
vt 0.803265 0.003670
vt 0.799353 0.015081
vt 0.790705 0.015477
vt 0.619159 0.030480
vt 0.615552 0.378032
vt 0.607645 0.378711
vt 0.611147 0.041278
vt 0.536577 0.009892
vt 0.546431 0.006302
vt 0.549394 0.020748
vt 0.541027 0.023797
vt 0.752229 0.523613
vt 0.752229 0.953671
vt 0.748892 0.949904
vt 0.744385 0.954343
vt 0.744385 0.535693
vt 0.773019 0.501880
vt 0.783235 0.504473
vt 0.779373 0.518872
vt 0.770699 0.516670
vt 0.737379 0.855943
vt 0.727653 0.855836
vt 0.724525 0.843721
vt 0.732784 0.843812
vt 0.962476 0.965391
vt 0.962476 0.451144
vt 0.967859 0.456860
vt 0.967859 0.952773
vt 0.003503 0.979980
vt 0.003503 0.615853
vt 0.011952 0.614693
vt 0.011952 0.970951
vt 0.296319 0.904834
vt 0.292098 0.911360
vt 0.284610 0.899235
vt 0.288194 0.893694
vt 0.750508 0.515461
vt 0.750508 0.010375
vt 0.757074 0.015766
vt 0.757074 0.503901
vt 0.557062 0.004201
vt 0.568062 0.003670
vt 0.567761 0.018514
vt 0.558421 0.018964
vt 0.429918 0.510579
vt 0.429918 0.942903
vt 0.421428 0.949224
vt 0.421428 0.522659
vt 0.796092 0.494873
vt 0.790705 0.508637
vt 0.848284 0.451144
vt 0.859261 0.451144
vt 0.859261 0.463224
vt 0.849940 0.463224
vt 0.040939 0.614693
vt 0.040939 0.964164
vt 0.033451 0.965506
vt 0.033451 0.621691
vt 0.828093 0.456138
vt 0.835892 0.451144
vt 0.841278 0.464908
vt 0.834656 0.469149
vt 0.933279 0.969721
vt 0.933279 0.451144
vt 0.941405 0.458312
vt 0.941405 0.957902
vt 0.086197 0.629451
vt 0.075433 0.629451
vt 0.075714 0.614693
vt 0.084853 0.614693
vt 0.460944 0.510579
vt 0.460944 0.958601
vt 0.453100 0.962552
vt 0.453100 0.522659
vt 0.829659 0.003757
vt 0.840213 0.003670
vt 0.837055 0.015777
vt 0.828093 0.015850
vt 0.060337 0.863102
vt 0.060337 0.619160
vt 0.061862 0.619701
vt 0.068427 0.614693
vt 0.068427 0.854041
vt 0.859757 0.417738
vt 0.849541 0.420332
vt 0.847219 0.405542
vt 0.855893 0.403339
vt 0.892540 0.451144
vt 0.892540 0.976200
vt 0.884091 0.968345
vt 0.884091 0.463254
vt 0.729033 0.393653
vt 0.737379 0.385031
vt 0.899545 0.460861
vt 0.910100 0.451144
vt 0.910100 0.911177
vt 0.899545 0.911177
vt 0.955471 0.970340
vt 0.948411 0.978335
vt 0.948411 0.451144
vt 0.955471 0.463224
vt 0.224640 0.783027
vt 0.224640 0.363736
vt 0.840213 0.438638
vt 0.831290 0.443803
vt 0.476400 0.940484
vt 0.473203 0.937586
vt 0.467950 0.943433
vt 0.467950 0.510579
vt 0.476400 0.522689
vt 0.821087 0.991093
vt 0.812760 0.996330
vt 0.812760 0.487423
vt 0.821087 0.499503
vt 0.516232 0.373822
vt 0.507893 0.372275
vt 0.511219 0.051811
vt 0.519496 0.059390
vt 0.744385 0.003670
vt 0.744385 0.516273
vt 0.859258 0.897594
vt 0.849938 0.905065
vt 0.564611 0.322075
vt 0.555305 0.319158
vt 0.398762 0.949059
vt 0.389588 0.941360
vt 0.389588 0.510579
vt 0.398762 0.511120
vt 0.884798 0.003670
vt 0.894525 0.007085
vt 0.894525 0.438075
vt 0.884798 0.438075
vt 0.866266 0.451144
vt 0.877085 0.460821
vt 0.877085 0.907245
vt 0.866266 0.907055
vt 0.946610 0.003670
vt 0.953171 0.010329
vt 0.953171 0.435558
vt 0.946610 0.423998
vt 0.346045 0.965557
vt 0.336679 0.956959
vt 0.336679 0.510579
vt 0.346045 0.510579
vt 0.770699 0.014813
vt 0.776640 0.006185
vt 0.776640 0.482460
vt 0.770699 0.482460
vt 0.353050 0.512168
vt 0.363868 0.510579
vt 0.363868 0.926453
vt 0.353050 0.925075
vt 0.979582 0.968186
vt 0.974865 0.975799
vt 0.974865 0.451144
vt 0.979582 0.463224
vt 0.288194 0.511854
vt 0.296319 0.510579
vt 0.790705 0.897743
vt 0.026446 0.976277
vt 0.018958 0.976849
vt 0.018958 0.614693
vt 0.026446 0.621691
vt 0.553910 0.307895
vt 0.550881 0.307733
vt 0.543255 0.312348
vt 0.939605 0.381112
vt 0.931155 0.382112
vt 0.931155 0.003670
vt 0.939605 0.012699
vt 0.709192 0.392192
vt 0.717519 0.385031
vt 0.717519 0.906693
vt 0.709192 0.894613
vt 0.916660 0.003670
vt 0.924150 0.010073
vt 0.924150 0.442500
vt 0.916660 0.430109
vt 0.329674 0.980874
vt 0.321148 0.991286
vt 0.321148 0.510579
vt 0.329674 0.510579
vt 0.522808 0.398738
vt 0.515638 0.401618
vt 0.519111 0.066936
vt 0.526197 0.072233
vt 0.783700 0.003670
vt 0.783700 0.494540
vt 0.244880 0.785586
vt 0.244880 0.351656
vt 0.436924 0.511162
vt 0.446095 0.510579
vt 0.446095 0.922515
vt 0.436924 0.926439
vt 0.901531 0.008584
vt 0.903733 0.010685
vt 0.909654 0.003670
vt 0.909654 0.436051
vt 0.901531 0.424233
vt 0.810270 0.003670
vt 0.821087 0.013854
vt 0.821087 0.479892
vt 0.810270 0.480082
vt 0.277604 0.944554
vt 0.266628 0.952096
vt 0.266628 0.510579
vt 0.277604 0.510579
vt 0.851097 0.004340
vt 0.859757 0.003670
vt 0.047945 0.614751
vt 0.053331 0.614693
vt 0.053331 0.962573
vt 0.047945 0.957214
vt 0.917106 0.451144
vt 0.926274 0.460284
vt 0.926274 0.946921
vt 0.917106 0.947463
vt 0.841278 0.861761
vt 0.834656 0.861972
vt 0.314142 0.927863
vt 0.303324 0.929039
vt 0.303324 0.511957
vt 0.314142 0.510579
vt 0.803265 0.487532
vt 0.794545 0.479247
vt 0.546302 0.318677
vt 0.537946 0.320649
vt 0.867593 0.004867
vt 0.876959 0.003670
vt 0.492576 0.917314
vt 0.483405 0.919075
vt 0.483406 0.510579
vt 0.492576 0.514503
vt 0.828093 0.863328
vt 0.725512 0.010142
vt 0.737379 0.003670
vt 0.783235 0.912784
vt 0.774597 0.914327
vt 0.763693 0.022624
vt 0.763693 0.503315
vt 0.405768 0.510579
vt 0.414422 0.518100
vt 0.414422 0.949219
vt 0.405768 0.948902
vt 0.601544 0.450289
vt 0.592844 0.455413
vt 0.588364 0.444415
vt 0.580009 0.446388
vt 0.583004 0.457736
vt 0.572400 0.457169
vt 0.571005 0.445906
vt 0.561700 0.442989
vt 0.561441 0.453734
vt 0.550548 0.447562
vt 0.552451 0.437749
vt 0.543613 0.430387
vt 0.540140 0.438892
vt 0.530616 0.428055
vt 0.535526 0.421186
vt 0.528501 0.410499
vt 0.522343 0.415469
vt 0.518665 0.386353
vt 0.510758 0.387033
vt 0.515602 0.361626
vt 0.507151 0.357911
vt 0.508562 0.344493
vt 0.516800 0.350233
vt 0.519779 0.340082
vt 0.513524 0.333960
vt 0.512048 0.334681
vt 0.517463 0.330079
vt 0.521821 0.328135
vt 0.524425 0.331561
vt 0.530559 0.325000
vt 0.529343 0.322854
vt 0.524664 0.324681
vt 0.533372 0.318694
vt 0.536731 0.317667
vt 0.544581 0.312156
vt 0.564869 0.311330
vt 0.575762 0.317502
vt 0.573860 0.327315
vt 0.582697 0.334677
vt 0.586170 0.326173
vt 0.595694 0.337009
vt 0.590784 0.343879
vt 0.597809 0.354565
vt 0.603968 0.349595
vt 0.610673 0.363447
vt 0.603503 0.366327
vt 0.618418 0.392790
vt 0.610078 0.391242
vt 0.610708 0.403438
vt 0.619159 0.407154
vt 0.617749 0.420571
vt 0.609510 0.414831
vt 0.606532 0.424983
vt 0.614240 0.432527
vt 0.608769 0.442562
vt 0.601886 0.433503
vt 0.595751 0.440065
vn 0.0000 -1.0000 0.0000
vn 0.0000 1.0000 0.0000
vn 1.0000 0.0000 0.0000
vn -0.0000 -0.0000 1.0000
vn -1.0000 -0.0000 -0.0000
vn 0.0000 0.0000 -1.0000
vn -0.5881 0.2600 -0.7658
vn -0.0347 0.1112 0.9932
vn -0.8204 0.1044 0.5622
vn 0.2527 -0.4326 0.8654
vn 0.5998 0.7461 0.2892
vn -0.9530 -0.1716 -0.2498
vn 0.9268 0.3650 -0.0881
vn -0.2937 0.8635 -0.4101
vn 0.2777 -0.8244 -0.4932
vn -0.9268 -0.3650 0.0881
vn -0.5762 0.7358 -0.3558
vn 0.7596 0.5027 -0.4126
vn 0.4920 0.8703 0.0209
vn 0.5881 -0.2600 0.7658
vn -0.6128 0.0384 0.7893
vn 0.2478 0.2389 0.9389
vn -0.8340 0.0478 -0.5496
vn -0.7596 -0.5027 0.4126
vn -0.7959 0.5703 -0.2029
vn 0.4767 0.5640 -0.6743
vn 0.2844 0.9363 -0.2062
vn 0.8340 -0.0479 0.5496
vn -0.3369 0.0408 0.9407
vn 0.4676 0.4044 0.7860
vn -0.4767 -0.5640 0.6743
vn -0.9195 0.3922 0.0252
vn 0.1213 0.5394 -0.8333
vn 0.0085 0.9338 -0.3576
vn 0.9530 0.1716 0.2498
vn 0.5912 0.5825 0.5579
vn -0.1213 -0.5394 0.8333
vn -0.9281 0.2286 0.2939
vn -0.2526 0.4326 -0.8654
vn 0.5108 -0.3081 0.8026
vn 0.6597 -0.2095 0.7217
vn 0.4286 -0.3531 0.8316
vn 0.9471 0.3208 -0.0029
vn 0.9365 0.1179 0.3302
vn -0.0670 0.4955 -0.8660
vn 0.9110 0.0631 0.4075
vn 0.6303 0.5438 -0.5541
vn -0.8767 -0.0077 -0.4809
vn 0.7833 -0.1029 0.6131
vn 0.5562 0.5566 -0.6172
vn 0.3927 0.5660 -0.7249
vn 0.9603 0.2237 0.1669
vn 0.0273 0.5199 -0.8538
vn -0.7250 0.1570 -0.6706
vn -0.1606 0.4663 -0.8699
vn 0.1606 -0.4663 0.8699
vn -0.6983 -0.5258 0.4857
vn 0.0670 -0.4955 0.8660
vn -0.6303 -0.5438 0.5541
vn -0.2141 -0.5536 0.8048
vn -0.9583 -0.2735 -0.0824
vn 0.6983 0.5258 -0.4857
vn -0.8597 -0.4423 0.2553
vn 0.7250 -0.1570 0.6706
vn 0.3049 0.5625 -0.7686
vn 0.3423 -0.3948 0.8526
vn 0.8597 0.4423 -0.2553
vn 0.9583 0.2735 0.0824
vn 0.8976 0.4056 -0.1725
vn -0.9603 -0.2237 -0.1669
vn -0.4286 0.3531 -0.8316
vn -0.3423 0.3948 -0.8526
vn 0.8767 0.0077 0.4809
vn -0.9471 -0.3208 0.0029
vn -0.9110 -0.0631 -0.4075
vn -0.6597 0.2095 -0.7217
vn -0.9365 -0.1179 -0.3302
vn -0.8976 -0.4056 0.1725
vn -0.5108 0.3081 -0.8026
vn 0.8136 0.4748 -0.3356
vn -0.8136 -0.4748 0.3356
vn -0.3927 -0.5660 0.7249
vn -0.3049 -0.5625 0.7686
vn -0.0273 -0.5199 0.8538
vn -0.5562 -0.5566 0.6172
vn -0.7833 0.1029 -0.6131
vn 0.2141 0.5536 -0.8048
vn 0.3752 0.8946 0.2428
usemtl Material.015
s off
f 1/1/1 2/2/1 3/3/1 4/4/1
f 5/5/2 8/6/2 7/7/2 6/8/2
f 1/9/3 5/10/3 6/11/3 2/12/3
f 2/13/4 6/14/4 7/15/4 3/16/4
f 3/16/5 7/15/5 8/17/5 4/18/5
f 5/19/6 1/20/6 4/21/6 8/22/6
f 37/23/7 93/24/7 96/25/7 69/26/7
f 10/27/8 11/28/8 43/29/8 42/30/8
f 36/31/9 37/32/9 69/33/9 68/34/9
f 19/35/10 135/36/10 136/37/10 123/38/10 51/39/10
f 18/40/11 19/41/11 51/42/11 50/43/11
f 9/44/12 76/45/12 81/46/12 41/47/12
f 27/48/13 107/49/13 111/50/13 59/51/13
f 26/52/14 27/53/14 59/54/14 58/55/14
f 10/56/15 9/57/15 40/58/15 39/59/15 38/60/15 37/61/15 36/62/15 35/63/15 34/64/15 33/65/15 32/66/15 31/67/15 30/68/15 29/69/15 28/70/15 27/71/15 26/72/15 25/73/15 24/74/15 23/75/15 22/76/15 21/77/15 20/78/15 19/79/15 18/80/15 17/81/15 16/82/15 15/83/15 14/84/15 13/85/15 12/86/15 11/87/15
f 11/28/16 114/88/16 119/89/16 43/29/16
f 28/90/17 29/91/17 61/92/17 60/93/17
f 29/94/18 116/95/18 117/96/18 61/97/18
f 20/98/19 21/99/19 53/100/19 52/101/19
f 21/102/20 137/103/20 138/104/20 121/105/20 53/106/20
f 38/107/21 39/108/21 71/109/21 70/110/21
f 12/111/22 13/112/22 45/113/22 44/114/22
f 39/115/23 85/116/23 89/117/23 71/118/23
f 13/119/24 106/120/24 112/121/24 45/122/24
f 30/123/25 31/124/25 63/125/25 62/126/25
f 31/127/26 79/128/26 78/129/26 63/130/26
f 22/131/27 23/132/27 55/133/27 54/134/27
f 23/135/28 129/136/28 99/137/28 55/138/28
f 40/139/29 9/44/29 41/47/29 72/140/29
f 14/141/30 15/142/30 47/143/30 46/144/30
f 15/145/31 124/146/31 105/147/31 47/148/31
f 32/149/32 33/150/32 65/151/32 64/152/32
f 33/153/33 87/154/33 86/155/33 65/156/33
f 24/157/34 25/158/34 57/159/34 56/160/34
f 25/161/35 128/162/35 101/163/35 57/164/35
f 16/165/36 17/166/36 49/167/36 48/168/36
f 17/169/37 133/170/37 134/171/37 127/172/37 49/173/37
f 34/174/38 35/175/38 67/176/38 66/177/38
f 35/178/39 94/179/39 73/180/39 67/181/39
f 112/182/40 110/183/40 44/114/40 45/113/40
f 97/184/41 106/185/41 13/186/41 14/187/41
f 74/188/42 95/189/42 36/190/42 68/191/42
f 123/38/43 125/192/43 50/193/43 51/39/43
f 127/194/44 100/195/44 48/168/44 49/167/44
f 125/196/45 140/197/45 131/198/45 18/199/45 50/200/45
f 82/201/46 83/202/46 40/203/46 72/204/46
f 98/205/47 97/206/47 14/207/47 46/208/47
f 80/209/48 79/128/48 31/127/48 32/210/48
f 105/211/49 98/212/49 46/144/49 47/143/49
f 99/213/50 126/214/50 54/134/50 55/133/50
f 120/215/51 129/216/51 23/217/51 24/218/51
f 131/219/52 133/220/52 17/221/52 18/222/52
f 104/223/53 128/224/53 25/225/53 26/226/53
f 126/227/54 132/228/54 22/229/54 54/230/54
f 111/231/55 103/232/55 58/233/55 59/234/55
f 119/235/56 75/236/56 42/237/56 43/238/56
f 90/239/57 93/240/57 37/241/57 38/242/57
f 92/243/58 88/244/58 34/245/58 66/246/58
f 77/247/59 115/248/59 30/123/59 62/126/59
f 81/46/60 82/249/60 72/140/60 41/47/60
f 103/250/61 104/251/61 26/252/61 58/253/61
f 132/254/62 139/255/62 137/256/62 21/99/62 22/131/62
f 113/257/63 108/258/63 28/259/63 60/260/63
f 91/261/64 90/262/64 38/263/64 70/264/64
f 100/265/65 130/266/65 16/267/65 48/268/65
f 109/269/66 114/270/66 11/271/66 12/272/66
f 110/273/67 109/274/67 12/275/67 44/276/67
f 75/236/68 118/277/68 10/278/68 42/237/68
f 141/279/69 135/36/69 19/35/69 20/280/69
f 88/281/70 87/282/70 33/283/70 34/284/70
f 122/285/71 142/286/71 141/287/71 20/288/71 52/289/71
f 108/290/72 107/291/72 27/292/72 28/293/72
f 130/294/73 124/295/73 15/296/73 16/297/73
f 73/298/74 92/299/74 66/177/74 67/176/74
f 102/300/75 120/301/75 24/302/75 56/303/75
f 115/304/76 116/305/76 29/306/76 30/307/76
f 86/308/77 84/309/77 64/152/77 65/151/77
f 95/310/78 94/311/78 35/312/78 36/313/78
f 117/314/79 113/315/79 60/93/79 61/92/79
f 121/316/80 122/317/80 52/101/80 53/100/80
f 96/318/81 74/319/81 68/34/81 69/33/81
f 83/320/82 85/321/82 39/322/82 40/323/82
f 84/309/83 80/324/83 32/149/83 64/152/83
f 118/325/84 76/326/84 9/57/84 10/56/84
f 89/327/85 91/328/85 70/110/85 71/109/85
f 78/129/86 77/329/86 62/330/86 63/130/86
f 101/331/87 102/332/87 56/333/87 57/334/87
f 94/335/88 95/336/88 74/337/88 96/338/88 93/339/88 90/340/88 91/341/88 89/342/88 85/343/88 83/344/88 82/345/88 81/346/88 76/347/88 118/348/88 75/349/88 119/350/88 114/351/88 109/274/88 110/273/88 112/352/88 106/353/88 97/206/88 98/205/88 105/354/88 124/355/88 130/356/88 100/357/88 127/358/88 134/359/88 133/360/88 131/361/88 140/362/88 125/363/88 123/364/88 136/365/88 135/366/88 141/367/88 142/368/88 122/317/88 121/316/88 138/369/88 137/256/88 139/255/88 132/254/88 126/214/88 99/213/88 129/370/88 120/371/88 102/372/88 101/373/88 128/374/88 104/375/88 103/376/88 111/377/88 107/378/88 108/379/88 113/380/88 117/96/88 116/95/88 115/381/88 77/382/88 78/383/88 79/384/88 80/385/88 84/386/88 86/387/88 87/388/88 88/389/88 92/390/88 73/391/88
