# Blender v2.79 (sub 0) OBJ File: ''
# www.blender.org
mtllib Obstacle_5.mtl
o Floor_basic_Cube.008
v 0.499607 -0.579558 -0.499227
v 0.499607 -0.579558 0.500773
v -0.500393 -0.579558 0.500773
v -0.500392 -0.579558 -0.499227
v 0.499608 0.420442 -0.499227
v 0.499607 0.420442 0.500773
v -0.500393 0.420442 0.500773
v -0.500393 0.420442 -0.499227
v 0.267156 -0.573265 -0.323800
v 0.312513 -0.562701 -0.315917
v 0.357249 -0.547549 -0.316054
v 0.399647 -0.528391 -0.324203
v 0.438075 -0.505964 -0.340053
v 0.471058 -0.481129 -0.362994
v 0.497328 -0.454840 -0.392145
v 0.515876 -0.428108 -0.426385
v 0.525988 -0.401961 -0.464398
v 0.527277 -0.377402 -0.504724
v 0.519692 -0.355377 -0.545813
v 0.503525 -0.336731 -0.586086
v 0.479398 -0.322180 -0.623996
v 0.448236 -0.312285 -0.658084
v 0.411240 -0.307424 -0.687042
v 0.369828 -0.307786 -0.709757
v 0.325594 -0.313356 -0.725356
v 0.280238 -0.323920 -0.733238
v 0.235501 -0.339072 -0.733102
v 0.193104 -0.358230 -0.724952
v 0.154675 -0.380658 -0.709102
v 0.121692 -0.405493 -0.686162
v 0.095422 -0.431781 -0.657010
v 0.076874 -0.458513 -0.622770
v 0.066762 -0.484661 -0.584757
v 0.065473 -0.509219 -0.544431
v 0.073058 -0.531244 -0.503342
v 0.089226 -0.549891 -0.463069
v 0.113353 -0.564441 -0.425160
v 0.144514 -0.574337 -0.391071
v 0.181511 -0.579197 -0.362113
v 0.222922 -0.578835 -0.339398
v 0.257854 -0.512955 -0.329750
v 0.296367 -0.503985 -0.323057
v 0.334352 -0.491119 -0.323173
v 0.370352 -0.474853 -0.330092
v 0.402982 -0.455809 -0.343550
v 0.430988 -0.434722 -0.363029
v 0.453294 -0.412400 -0.387781
v 0.469042 -0.389702 -0.416854
v 0.477629 -0.367501 -0.449131
v 0.478723 -0.346648 -0.483372
v 0.472282 -0.327946 -0.518261
v 0.458555 -0.312114 -0.552457
v 0.438068 -0.299759 -0.584645
v 0.411610 -0.291357 -0.613590
v 0.380195 -0.287230 -0.638178
v 0.345033 -0.287537 -0.657465
v 0.307475 -0.292266 -0.670710
v 0.268962 -0.301236 -0.677403
v 0.230976 -0.314102 -0.677287
v 0.194977 -0.330369 -0.670367
v 0.162347 -0.349412 -0.656909
v 0.134341 -0.370500 -0.637430
v 0.112035 -0.392821 -0.612678
v 0.096287 -0.415519 -0.583605
v 0.087700 -0.437721 -0.551328
v 0.086606 -0.458573 -0.517087
v 0.093047 -0.477275 -0.482198
v 0.106774 -0.493108 -0.448003
v 0.127261 -0.505463 -0.415814
v 0.153720 -0.513865 -0.386870
v 0.185134 -0.517991 -0.362281
v 0.220296 -0.517684 -0.342994
v -0.482286 1.230580 0.539492
v -0.468805 1.215477 0.574124
v -0.244207 1.100689 0.636908
v -0.300790 1.112661 0.684772
v -0.413198 1.254851 0.334904
v -0.443984 1.257701 0.374714
v -0.479907 1.276061 0.364673
v -0.507015 1.274742 0.414115
v -0.291896 1.118959 0.646511
v -0.337661 1.138591 0.647840
v -0.354688 1.135782 0.686338
v -0.467001 1.256581 0.416696
v -0.404251 1.159618 0.678099
v -0.481367 1.251535 0.459236
v -0.523934 1.268798 0.464215
v -0.530012 1.258459 0.513047
v -0.379745 1.158830 0.640845
v -0.447573 1.183254 0.660373
v -0.416530 1.178899 0.625793
v -0.486528 1.242755 0.500699
v -0.482990 1.205780 0.633841
v -0.525017 1.244119 0.558735
v -0.509139 1.226332 0.599522
v -0.446601 1.198026 0.603265
v -0.040053 1.036086 0.544650
v -0.070504 1.053939 0.527533
v -0.103957 1.149960 0.221592
v -0.016701 1.052208 0.445741
v -0.191806 1.189831 0.215926
v -0.146041 1.170199 0.214597
v -0.239495 1.208101 0.225529
v -0.239076 1.217646 0.188974
v -0.039719 1.051088 0.487722
v -0.084064 1.043989 0.587176
v -0.295347 1.236732 0.209592
v -0.349562 1.252654 0.238728
v -0.134140 1.056135 0.623709
v -0.150394 1.070963 0.594662
v -0.287274 1.224307 0.243036
v -0.107875 1.060650 0.563642
v -0.333308 1.237827 0.267775
v -0.188355 1.072058 0.652845
v -0.443650 1.272704 0.317787
v -0.399638 1.264801 0.275261
v -0.375827 1.248140 0.298795
v -0.244625 1.091144 0.673463
v -0.196428 1.084482 0.619401
v -0.129013 1.173008 0.176099
v -0.037101 1.110764 0.259172
v -0.014898 1.093313 0.288313
v -0.001416 1.078210 0.322945
v -0.003796 1.032729 0.497764
v 0.002826 1.066035 0.361738
v -0.067173 1.129891 0.236644
v -0.002335 1.057255 0.403201
v -0.182913 1.196129 0.177664
v -0.079451 1.149171 0.184338
v 0.023313 1.034048 0.448322
v 0.034226 1.086202 0.370849
v -0.036129 1.125536 0.202064
v 0.036813 1.050138 0.404292
v 0.032205 1.043247 0.399161
v 0.025514 1.111571 0.331760
v 0.007552 1.075368 0.318906
v -0.008719 1.126778 0.242815
v -0.016193 1.106308 0.241606
v -0.026011 1.119101 0.209644
v 0.019275 1.060095 0.357067
v 0.011014 1.125272 0.288528
v -0.003961 1.090370 0.281426
vn 0.0000 -1.0000 0.0000
vn 0.0000 1.0000 0.0000
vn 1.0000 0.0000 0.0000
vn -0.0000 -0.0000 1.0000
vn -1.0000 -0.0000 -0.0000
vn 0.0000 0.0000 -1.0000
vn -0.5881 0.2600 -0.7658
vn -0.0347 0.1112 0.9932
vn -0.8204 0.1044 0.5622
vn 0.2527 -0.4326 0.8654
vn 0.5998 0.7461 0.2892
vn -0.9530 -0.1716 -0.2498
vn 0.9268 0.3650 -0.0881
vn -0.2937 0.8635 -0.4101
vn 0.2777 -0.8244 -0.4932
vn -0.9268 -0.3650 0.0881
vn -0.5762 0.7358 -0.3558
vn 0.7596 0.5027 -0.4126
vn 0.4920 0.8703 0.0209
vn 0.5881 -0.2600 0.7658
vn -0.6128 0.0384 0.7893
vn 0.2478 0.2389 0.9389
vn -0.8340 0.0478 -0.5496
vn -0.7596 -0.5027 0.4126
vn -0.7959 0.5703 -0.2029
vn 0.4767 0.5640 -0.6743
vn 0.2844 0.9363 -0.2062
vn 0.8340 -0.0479 0.5496
vn -0.3369 0.0408 0.9407
vn 0.4676 0.4044 0.7860
vn -0.4767 -0.5640 0.6743
vn -0.9195 0.3922 0.0252
vn 0.1213 0.5394 -0.8333
vn 0.0085 0.9338 -0.3576
vn 0.9530 0.1716 0.2498
vn 0.5912 0.5825 0.5579
vn -0.1213 -0.5394 0.8333
vn -0.9281 0.2286 0.2939
vn -0.2526 0.4326 -0.8654
vn 0.5108 -0.3081 0.8026
vn 0.6597 -0.2095 0.7217
vn 0.4286 -0.3531 0.8316
vn 0.9471 0.3208 -0.0029
vn 0.9365 0.1179 0.3302
vn -0.0670 0.4955 -0.8660
vn 0.9110 0.0631 0.4075
vn 0.6303 0.5438 -0.5541
vn -0.8767 -0.0077 -0.4809
vn 0.7833 -0.1029 0.6131
vn 0.5562 0.5566 -0.6172
vn 0.3927 0.5660 -0.7249
vn 0.9603 0.2237 0.1669
vn 0.0273 0.5199 -0.8538
vn -0.7250 0.1570 -0.6706
vn -0.1606 0.4663 -0.8699
vn 0.1606 -0.4663 0.8699
vn -0.6983 -0.5258 0.4857
vn 0.0670 -0.4955 0.8660
vn -0.6303 -0.5438 0.5541
vn -0.2141 -0.5536 0.8048
vn -0.9583 -0.2735 -0.0824
vn 0.6983 0.5258 -0.4857
vn -0.8597 -0.4423 0.2553
vn 0.7250 -0.1570 0.6706
vn 0.3049 0.5625 -0.7686
vn 0.3423 -0.3948 0.8526
vn 0.8597 0.4423 -0.2553
vn 0.9583 0.2735 0.0824
vn 0.8976 0.4056 -0.1725
vn -0.9603 -0.2237 -0.1669
vn -0.4286 0.3531 -0.8316
vn -0.3423 0.3948 -0.8526
vn 0.8767 0.0077 0.4809
vn -0.9471 -0.3208 0.0029
vn -0.9110 -0.0631 -0.4075
vn -0.6597 0.2095 -0.7217
vn -0.9365 -0.1179 -0.3302
vn -0.8976 -0.4056 0.1725
vn -0.5108 0.3081 -0.8026
vn 0.8136 0.4748 -0.3356
vn -0.8136 -0.4748 0.3356
vn -0.3927 -0.5660 0.7249
vn -0.3049 -0.5625 0.7686
vn -0.0273 -0.5199 0.8538
vn -0.5562 -0.5566 0.6172
vn -0.7833 0.1029 -0.6131
vn 0.2141 0.5536 -0.8048
vn 0.3752 0.8946 0.2428
usemtl Tierra_2.008
s off
f 1//1 2//1 3//1 4//1
f 5//2 8//2 7//2 6//2
f 1//3 5//3 6//3 2//3
f 2//4 6//4 7//4 3//4
f 3//5 7//5 8//5 4//5
f 5//6 1//6 4//6 8//6
usemtl Piedra3_2.002
f 37//7 93//7 96//7 69//7
f 10//8 11//8 43//8 42//8
f 36//9 37//9 69//9 68//9
f 19//10 135//10 136//10 123//10 51//10
f 18//11 19//11 51//11 50//11
f 9//12 76//12 81//12 41//12
f 27//13 107//13 111//13 59//13
f 26//14 27//14 59//14 58//14
f 10//15 9//15 40//15 39//15 38//15 37//15 36//15 35//15 34//15 33//15 32//15 31//15 30//15 29//15 28//15 27//15 26//15 25//15 24//15 23//15 22//15 21//15 20//15 19//15 18//15 17//15 16//15 15//15 14//15 13//15 12//15 11//15
f 11//16 114//16 119//16 43//16
f 28//17 29//17 61//17 60//17
f 29//18 116//18 117//18 61//18
f 20//19 21//19 53//19 52//19
f 21//20 137//20 138//20 121//20 53//20
f 38//21 39//21 71//21 70//21
f 12//22 13//22 45//22 44//22
f 39//23 85//23 89//23 71//23
f 13//24 106//24 112//24 45//24
f 30//25 31//25 63//25 62//25
f 31//26 79//26 78//26 63//26
f 22//27 23//27 55//27 54//27
f 23//28 129//28 99//28 55//28
f 40//29 9//29 41//29 72//29
f 14//30 15//30 47//30 46//30
f 15//31 124//31 105//31 47//31
f 32//32 33//32 65//32 64//32
f 33//33 87//33 86//33 65//33
f 24//34 25//34 57//34 56//34
f 25//35 128//35 101//35 57//35
f 16//36 17//36 49//36 48//36
f 17//37 133//37 134//37 127//37 49//37
f 34//38 35//38 67//38 66//38
f 35//39 94//39 73//39 67//39
f 112//40 110//40 44//40 45//40
f 97//41 106//41 13//41 14//41
f 74//42 95//42 36//42 68//42
f 123//43 125//43 50//43 51//43
f 127//44 100//44 48//44 49//44
f 125//45 140//45 131//45 18//45 50//45
f 82//46 83//46 40//46 72//46
f 98//47 97//47 14//47 46//47
f 80//48 79//48 31//48 32//48
f 105//49 98//49 46//49 47//49
f 99//50 126//50 54//50 55//50
f 120//51 129//51 23//51 24//51
f 131//52 133//52 17//52 18//52
f 104//53 128//53 25//53 26//53
f 126//54 132//54 22//54 54//54
f 111//55 103//55 58//55 59//55
f 119//56 75//56 42//56 43//56
f 90//57 93//57 37//57 38//57
f 92//58 88//58 34//58 66//58
f 77//59 115//59 30//59 62//59
f 81//60 82//60 72//60 41//60
f 103//61 104//61 26//61 58//61
f 132//62 139//62 137//62 21//62 22//62
f 113//63 108//63 28//63 60//63
f 91//64 90//64 38//64 70//64
f 100//65 130//65 16//65 48//65
f 109//66 114//66 11//66 12//66
f 110//67 109//67 12//67 44//67
f 75//68 118//68 10//68 42//68
f 141//69 135//69 19//69 20//69
f 88//70 87//70 33//70 34//70
f 122//71 142//71 141//71 20//71 52//71
f 108//72 107//72 27//72 28//72
f 130//73 124//73 15//73 16//73
f 73//74 92//74 66//74 67//74
f 102//75 120//75 24//75 56//75
f 115//76 116//76 29//76 30//76
f 86//77 84//77 64//77 65//77
f 95//78 94//78 35//78 36//78
f 117//79 113//79 60//79 61//79
f 121//80 122//80 52//80 53//80
f 96//81 74//81 68//81 69//81
f 83//82 85//82 39//82 40//82
f 84//83 80//83 32//83 64//83
f 118//84 76//84 9//84 10//84
f 89//85 91//85 70//85 71//85
f 78//86 77//86 62//86 63//86
f 101//87 102//87 56//87 57//87
f 94//88 95//88 74//88 96//88 93//88 90//88 91//88 89//88 85//88 83//88 82//88 81//88 76//88 118//88 75//88 119//88 114//88 109//88 110//88 112//88 106//88 97//88 98//88 105//88 124//88 130//88 100//88 127//88 134//88 133//88 131//88 140//88 125//88 123//88 136//88 135//88 141//88 142//88 122//88 121//88 138//88 137//88 139//88 132//88 126//88 99//88 129//88 120//88 102//88 101//88 128//88 104//88 103//88 111//88 107//88 108//88 113//88 117//88 116//88 115//88 77//88 78//88 79//88 80//88 84//88 86//88 87//88 88//88 92//88 73//88
