# Blender v2.79 (sub 0) OBJ File: ''
# www.blender.org
mtllib tileEjemplo.mtl
o Cube.004_Cube.005
v 0.492972 -0.485617 0.490300
v -0.492972 -0.485617 0.490300
v 0.492972 -0.485617 -0.495644
v -0.492972 -0.485617 -0.495644
v 0.464923 0.500327 0.462251
v 0.492972 0.472277 0.490300
v -0.464923 0.500327 0.462251
v -0.492972 0.472277 0.490300
v 0.464923 0.500327 -0.467595
v 0.492972 0.472277 -0.495644
v -0.464923 0.500327 -0.467595
v -0.492972 0.472277 -0.495644
v -0.492972 -0.485617 -0.128886
v 0.492972 -0.485617 0.181472
v -0.464923 0.500327 -0.052511
v -0.492972 0.472277 -0.063262
v 0.464923 0.500327 0.240187
v 0.492972 0.472277 0.247095
v -0.239998 0.500327 0.199625
v 0.224414 -0.485617 0.096935
v -0.492972 -0.485617 0.410005
v -0.492972 0.472277 0.190147
v 0.492972 0.472277 0.096103
v 0.492972 -0.485617 0.315961
v -0.464923 0.500327 0.181033
v 0.464923 0.500327 0.092340
v 0.104467 0.500327 0.126722
v 0.492972 -0.034358 0.212387
v -0.227674 0.500327 0.249077
vt 0.571176 0.008898
vt 0.667785 0.008898
vt 0.667785 0.303866
vt 0.591497 0.303866
vt 0.552518 0.189521
vt 0.594551 0.084158
vt 0.664949 0.625231
vt 0.338710 0.626965
vt 0.338710 0.314498
vt 0.664949 0.312764
vt 0.990552 0.626928
vt 0.664949 0.625318
vt 0.664949 0.312764
vt 0.990552 0.314373
vt 0.000000 0.429108
vt 0.000000 0.312764
vt 0.338710 0.312764
vt 0.338710 0.527560
vt 0.246450 0.500743
vt 0.703658 0.312764
vt 0.681114 0.008898
vt 0.829654 0.008898
vt 0.829654 0.312764
vt 0.677421 0.000000
vt 0.677421 0.312764
vt 0.677421 0.000000
vt 0.820018 0.000000
vt 0.348346 0.008898
vt 0.348346 0.303866
vt 0.338710 0.312764
vt 0.338710 0.000000
vt 0.000000 0.079341
vt 0.000000 0.008898
vt 0.009636 0.000000
vt 0.009636 0.077150
vt 0.183685 0.088160
vt 0.338710 0.000000
vt 0.338710 0.055304
vt 0.000000 0.126242
vt 0.009636 0.125048
vt 0.540706 0.303866
vt 0.000000 0.600056
vt 0.338710 0.570223
vt 0.490944 0.008898
vt 0.577563 0.080249
vt 0.338710 0.097967
vt 0.000000 0.303866
vt 0.009636 0.312764
vt 0.672155 0.647108
vt 0.766260 0.626928
vt 0.765390 0.636249
vt 0.664949 0.657788
vt 0.000000 0.625528
vt 0.338710 0.625528
vt 0.739391 0.953777
vt 0.766260 0.948015
vt 0.990552 0.616316
vt 1.000000 0.312764
vt 1.000000 0.625843
vt 0.848437 0.956596
vt 0.766260 0.931313
vt 0.848437 0.626928
vt 0.273412 0.999067
vt 0.170648 0.946635
vt 0.273412 0.625528
vt 0.000000 0.732587
vt 0.003249 0.720098
vt 0.170648 1.000000
vt 0.073930 0.684567
vt 0.170648 0.625528
vn 0.0000 1.0000 -0.0000
vn 0.0000 0.0000 -1.0000
vn 0.0000 0.0000 1.0000
vn 0.0000 -1.0000 -0.0000
vn -1.0000 0.0000 0.0000
vn 0.0000 0.7071 0.7071
vn -0.7071 0.7071 0.0000
vn 0.0000 0.7071 -0.7071
vn 0.7071 0.7071 -0.0000
vn 1.0000 0.0000 -0.0000
vn -0.2996 -0.0652 0.9518
vn -0.7459 -0.0303 0.6654
vn 0.1936 -0.3545 0.9148
vn -0.0926 -0.2227 -0.9705
vn 0.2686 -0.2251 -0.9366
vn -0.3450 -0.0600 -0.9367
usemtl Piedra_3
s off
f 25/1/1 7/2/1 5/3/1 17/4/1 27/5/1 29/6/1
f 4/7/2 12/8/2 10/9/2 3/10/2
f 1/11/3 6/12/3 8/13/3 2/14/3
f 13/15/4 4/16/4 3/17/4 14/18/4 20/19/4
f 13/20/5 16/21/5 12/22/5 4/23/5
f 5/3/6 7/2/6 8/24/6 6/25/6
f 15/26/7 11/27/7 12/22/7 16/21/7
f 11/28/8 9/29/8 10/30/8 12/31/8
f 17/32/9 5/33/9 6/34/9 18/35/9
f 28/36/10 18/35/10 6/34/10 1/37/10 24/38/10
f 26/39/9 17/32/9 18/35/9 23/40/9
f 26/41/1 27/5/1 17/4/1
f 28/36/10 23/40/10 18/35/10
f 21/42/4 13/15/4 20/19/4 14/18/4 24/43/4
f 11/28/1 15/44/1 19/45/1 27/5/1 26/41/1 9/29/1
f 14/46/10 28/36/10 24/38/10
f 9/47/9 26/39/9 23/40/9 10/48/9
f 3/17/10 10/48/10 23/40/10 28/36/10 14/46/10
f 7/49/7 25/50/7 22/51/7 8/52/7
f 2/53/4 21/42/4 24/43/4 1/54/4
f 2/55/5 8/52/5 22/51/5 21/56/5
f 16/57/11 13/58/11 15/59/11
f 19/60/12 15/61/12 13/62/12
f 27/63/13 19/64/13 13/65/13
f 22/66/14 25/67/14 21/68/14
f 29/69/15 21/68/15 25/67/15
f 27/70/16 21/68/16 29/69/16
o Cube.005_Cube.006
v -0.500003 -0.580943 0.499112
v -0.500003 0.419062 0.499112
v -0.500003 -0.580943 -0.500893
v -0.500003 0.419062 -0.500893
v 0.500003 -0.580943 0.499112
v 0.500003 0.419062 0.499112
v 0.500003 -0.580943 -0.500893
v 0.500003 0.419062 -0.500893
vt 0.666667 0.333333
vt 0.333333 0.333333
vt 0.333333 0.000000
vt 0.666667 0.000000
vt 0.333333 0.666667
vt 0.000000 0.666667
vt 0.000000 0.333333
vt 0.333333 0.333333
vt 0.000000 0.000000
vt 0.333333 0.000000
vt 0.333333 0.666667
vt 0.333333 0.333333
vt 0.666667 0.333333
vt 0.666667 0.666667
vt 1.000000 0.333333
vt 0.666667 0.333333
vt 0.666667 0.000000
vt 1.000000 0.000000
vt 0.333333 0.666667
vt 0.333333 1.000000
vt 0.000000 1.000000
vt 0.000000 0.666667
vn -1.0000 0.0000 0.0000
vn 0.0000 0.0000 -1.0000
vn 1.0000 0.0000 0.0000
vn 0.0000 0.0000 1.0000
vn 0.0000 -1.0000 0.0000
vn 0.0000 1.0000 0.0000
usemtl Tierra_2
s off
f 30/71/17 31/72/17 33/73/17 32/74/17
f 32/75/18 33/76/18 37/77/18 36/78/18
f 36/78/19 37/77/19 35/79/19 34/80/19
f 34/81/20 35/82/20 31/83/20 30/84/20
f 32/85/21 36/86/21 34/87/21 30/88/21
f 37/89/22 33/90/22 31/91/22 35/92/22
